<?xml version="1.0" encoding="utf-8"?>
<!-- Generator: Adobe Illustrator 25.4.5, SVG Export Plug-In . SVG Version: 6.00 Build 0)  -->
<svg version="1.1" id="Layer_1" xmlns="http://www.w3.org/2000/svg" xmlns:xlink="http://www.w3.org/1999/xlink" x="0px" y="0px"
	 viewBox="0 0 102 60" style="enable-background:new 0 0 102 60;" xml:space="preserve">
<style type="text/css">
	.st0{fill:#034EA2;}
	.st1{fill:#5087C7;}
	.st2{fill:#5087C7;stroke:#5087C7;stroke-width:0.25;stroke-miterlimit:10;}
</style>
<g>
	<g>
		<path class="st0" d="M13.06,2.18L13.06,2.18h15.79v4.78H16.94v2.66h9.73v4.8h-9.73v7.26H9.38V5.85c0,0,0-0.01,0-0.02
			c0-2,1.64-3.65,3.65-3.65C13.05,2.18,13.05,2.18,13.06,2.18L13.06,2.18z"/>
		<path class="st0" d="M84.54,2.27L84.54,2.27c-0.01,0-0.01-0.01-0.02-0.01c-1.65,0-3.05,1.11-3.5,2.61l-2.78,9.27l-3.3-11.89h-7.53
			v0.01c-0.01,0-0.01-0.01-0.02-0.01c-2.01,0-3.66,1.65-3.66,3.66v15.84h6.99V6.54l4.58,15.23h5.9l4.64-15.23v15.23h7V2.27
			L84.54,2.27L84.54,2.27L84.54,2.27z"/>
		<rect x="30.32" y="2.2" class="st0" width="7.47" height="19.58"/>
		<path class="st0" d="M56.01,2.14H47.9h-0.16v0.01c-0.01,0-0.01-0.01-0.02-0.01c-1.26,0-2.35,0.91-2.82,2.19l-5.62,17.44h7.62
			l0.98-3.53h5.35l0.99,3.53h8.03L56.01,2.14z M48.78,14.17c0,0,1.88-6.62,1.96-7.15c0.14,0.92,1.75,7.15,1.75,7.15H48.78z"/>
	</g>
	<g>
		<path class="st1" d="M7.26,26.25L7.26,26.25l15.79-0.01v4.78H11.14v2.66h9.73v4.79h-9.73v7.26H3.58V29.92c0,0,0-0.01,0-0.01
			c0-2.01,1.64-3.66,3.66-3.66C7.24,26.25,7.25,26.25,7.26,26.25L7.26,26.25z"/>
		<path class="st1" d="M90.34,26.25L90.34,26.25c-0.01,0-0.01-0.01-0.03-0.01c-1.64,0-3.04,1.11-3.5,2.61l-2.78,9.27l-3.3-11.89
			h-7.53v0.01c-0.01,0-0.01-0.01-0.02-0.01c-2.01,0-3.66,1.65-3.66,3.66v15.84h6.99V30.52l4.58,15.23H87l4.64-15.23v15.23h7v-19.5
			L90.34,26.25L90.34,26.25L90.34,26.25z"/>
		<path class="st1" d="M37.19,26.12h-8.11h-0.16l0,0c0,0-0.01,0-0.02,0c-1.27,0-2.35,0.91-2.82,2.19l-5.62,17.44h7.62l0.98-3.53
			h5.35l0.99,3.53h8.03L37.19,26.12z M29.96,38.15c0,0,1.88-6.62,1.96-7.15c0.14,0.92,1.75,7.15,1.75,7.15H29.96z"/>
		<path class="st1" d="M61.75,26.12h-8.11h-0.16l0,0h-0.02c-1.26,0-2.36,0.91-2.82,2.19l-5.62,17.44h7.63l0.98-3.53h5.35l1,3.53H68
			L61.75,26.12z M54.53,38.15c0,0,1.88-6.62,1.96-7.15c0.14,0.92,1.75,7.15,1.75,7.15H54.53z"/>
	</g>
	<g>
		<path class="st2" d="M7.83,55.53v0.23c0.02,0.82-0.12,1.42-0.43,1.78c-0.31,0.37-0.83,0.55-1.55,0.55c-0.71,0-1.24-0.17-1.58-0.51
			s-0.51-0.86-0.51-1.56v-3.37c0-0.82,0.17-1.4,0.5-1.77c0.33-0.36,0.88-0.54,1.63-0.54c0.72,0,1.23,0.16,1.53,0.49
			c0.28,0.29,0.41,0.72,0.41,1.31l-0.01,0.25v0.23H6.79v-0.23c0.01-0.46-0.04-0.77-0.17-0.95c-0.13-0.17-0.37-0.26-0.72-0.26
			c-0.39,0-0.68,0.1-0.85,0.3c-0.17,0.2-0.26,0.53-0.26,0.98v3.37c0,0.53,0.07,0.89,0.22,1.09s0.41,0.3,0.8,0.3
			c0.35,0,0.61-0.12,0.76-0.35c0.15-0.23,0.22-0.61,0.22-1.13v-0.23H7.83z"/>
		<path class="st2" d="M9.19,57.99v-7.57h3.39v0.42v0.43h-2.35v2.4h2.22v0.42v0.43h-2.22v2.61h2.42v0.42v0.43H9.19z"/>
		<path class="st2" d="M14.8,57.99h-0.49h-0.49v-7.57h0.81h0.82l1.96,6.53v-6.53h0.48h0.48v7.57h-0.81h-0.82l-1.94-6.5V57.99z"/>
		<path class="st2" d="M21.15,51.27h-1.74v-0.42v-0.43h4.52v0.42v0.43h-1.74v6.72h-0.51h-0.52V51.27z"/>
		<path class="st2" d="M25,50.42h0.52h1.88c0.63,0,1.09,0.15,1.39,0.46c0.3,0.31,0.45,0.78,0.45,1.43v-0.07
			c0,0.69-0.17,1.19-0.51,1.5c-0.23,0.21-0.55,0.34-0.98,0.41c0.46,0.03,0.78,0.14,0.95,0.32c0.21,0.22,0.32,0.64,0.33,1.27
			c0.01,0.45,0.03,0.83,0.06,1.14l0.02,0.18c0.02,0.2,0.05,0.36,0.08,0.5c0.03,0.14,0.06,0.28,0.1,0.43h-0.54h-0.54
			c-0.05-0.23-0.09-0.41-0.11-0.54c-0.02-0.13-0.04-0.23-0.05-0.32l-0.02-0.16c-0.03-0.31-0.05-0.66-0.06-1.05
			c-0.01-0.49-0.1-0.84-0.28-1.05c-0.18-0.21-0.47-0.31-0.87-0.31h-0.8h-0.01v3.43h-0.52H25V50.42z M26.04,53.71h0.82
			c0.52,0,0.87-0.1,1.06-0.3c0.19-0.2,0.28-0.57,0.28-1.12v0.07c0-0.41-0.1-0.7-0.29-0.86c-0.19-0.16-0.54-0.23-1.06-0.23h-0.82
			V53.71z"/>
		<path class="st2" d="M30.93,57.53c-0.31-0.37-0.46-1.03-0.46-2v-2.79c0-0.85,0.17-1.46,0.5-1.84c0.34-0.38,0.89-0.57,1.65-0.57
			c0.78,0,1.33,0.19,1.66,0.56c0.33,0.38,0.49,1,0.49,1.88v3.18c0,0.75-0.17,1.29-0.5,1.63c-0.34,0.33-0.89,0.5-1.65,0.5
			C31.8,58.08,31.24,57.9,30.93,57.53z M33.47,56.87c0.18-0.23,0.26-0.61,0.26-1.14v-3.18c0-0.52-0.08-0.88-0.24-1.08
			c-0.16-0.2-0.45-0.3-0.88-0.3c-0.39,0-0.68,0.12-0.85,0.37c-0.18,0.25-0.26,0.65-0.26,1.2v2.79c0,0.64,0.08,1.08,0.24,1.32
			s0.45,0.36,0.88,0.36C33.01,57.23,33.3,57.11,33.47,56.87z"/>
		<path class="st2" d="M42.82,56.07c0,0.67-0.18,1.18-0.53,1.51c-0.35,0.33-0.88,0.5-1.59,0.5c-0.71,0-1.24-0.17-1.59-0.5
			c-0.35-0.33-0.53-0.84-0.53-1.51v-5.65h0.51h0.52v5.36c0,0.5,0.09,0.87,0.26,1.11c0.17,0.23,0.45,0.35,0.82,0.35
			c0.38,0,0.66-0.11,0.83-0.34c0.17-0.23,0.25-0.6,0.25-1.11v-5.36h0.52h0.52V56.07z"/>
		<path class="st2" d="M45.19,57.99h-0.49H44.2v-7.57h0.81h0.82l1.96,6.53v-6.53h0.48h0.48v7.57h-0.81h-0.82l-1.94-6.5V57.99z"/>
		<path class="st2" d="M50.09,50.42h0.51h0.52v7.57h-0.51h-0.52V50.42z"/>
		<path class="st2" d="M52.12,50.42h0.55h0.55l1.2,6.45h0l1.15-6.45h0.5h0.5l-1.59,7.57h-0.63h-0.64L52.12,50.42z"/>
		<path class="st2" d="M57.6,57.99v-7.57h3.39v0.42v0.43h-2.35v2.4h2.22v0.42v0.43h-2.22v2.61h2.42v0.42v0.43H57.6z"/>
		<path class="st2" d="M62.26,50.42h0.52h1.88c0.63,0,1.09,0.15,1.39,0.46c0.3,0.31,0.45,0.78,0.45,1.43v-0.07
			c0,0.69-0.17,1.19-0.51,1.5c-0.23,0.21-0.55,0.34-0.98,0.41c0.46,0.03,0.78,0.14,0.95,0.32c0.21,0.22,0.32,0.64,0.33,1.27
			c0.01,0.45,0.03,0.83,0.06,1.14l0.02,0.18c0.02,0.2,0.05,0.36,0.08,0.5c0.03,0.14,0.06,0.28,0.1,0.43h-0.54h-0.54
			c-0.05-0.23-0.09-0.41-0.11-0.54c-0.02-0.13-0.04-0.23-0.05-0.32l-0.02-0.16c-0.03-0.31-0.05-0.66-0.06-1.05
			c-0.01-0.49-0.1-0.84-0.28-1.05c-0.18-0.21-0.47-0.31-0.87-0.31h-0.8H63.3v3.43h-0.52h-0.52V50.42z M63.3,53.71h0.82
			c0.52,0,0.87-0.1,1.06-0.3c0.19-0.2,0.28-0.57,0.28-1.12v0.07c0-0.41-0.1-0.7-0.29-0.86s-0.54-0.23-1.06-0.23H63.3V53.71z"/>
		<path class="st2" d="M70.72,52.61v-0.23c0-0.44-0.07-0.75-0.21-0.93c-0.14-0.18-0.38-0.28-0.71-0.28c-0.37,0-0.64,0.08-0.81,0.25
			c-0.17,0.17-0.25,0.44-0.25,0.82c0,0.3,0.07,0.54,0.22,0.7c0.15,0.16,0.47,0.38,0.98,0.65c0.79,0.41,1.3,0.77,1.56,1.07
			c0.25,0.3,0.37,0.71,0.37,1.24c0,0.72-0.18,1.26-0.55,1.63c-0.37,0.36-0.92,0.54-1.66,0.54c-0.79,0-1.35-0.18-1.67-0.55
			c-0.3-0.34-0.45-0.89-0.45-1.65l0.01-0.2v-0.23h1.05v0.23c-0.01,0.59,0.06,1,0.22,1.22c0.15,0.22,0.44,0.33,0.85,0.33
			c0.42,0,0.72-0.1,0.91-0.29c0.19-0.19,0.28-0.5,0.28-0.94c0-0.33-0.09-0.59-0.25-0.77c-0.17-0.18-0.54-0.43-1.12-0.73
			c-0.67-0.36-1.14-0.7-1.41-1.01c-0.26-0.31-0.39-0.7-0.39-1.15c0-0.67,0.18-1.18,0.53-1.51c0.35-0.33,0.89-0.5,1.6-0.5
			c0.74,0,1.26,0.15,1.56,0.46c0.27,0.29,0.41,0.76,0.41,1.43l-0.01,0.17v0.23H70.72z"/>
		<path class="st2" d="M72.98,50.42h0.51h0.52v7.57H73.5h-0.52V50.42z"/>
		<path class="st2" d="M76.85,51.27h-1.74v-0.42v-0.43h4.52v0.42v0.43h-1.74v6.72h-0.51h-0.52V51.27z"/>
		<path class="st2" d="M82.14,50.42h0.69h0.69l1.73,7.57h-0.55h-0.55l-0.35-1.72h-2.03l-0.36,1.72h-0.5h-0.5L82.14,50.42z
			 M81.96,55.42h1.69l-0.85-4.07h0L81.96,55.42z M82.26,49.83l0.61-1.66h1.13l-0.98,1.66H82.26z"/>
		<path class="st2" d="M86.37,50.42h0.52h1.88c0.63,0,1.09,0.15,1.39,0.46c0.3,0.31,0.45,0.78,0.45,1.43v-0.07
			c0,0.69-0.17,1.19-0.51,1.5c-0.23,0.21-0.55,0.34-0.98,0.41c0.46,0.03,0.78,0.14,0.95,0.32c0.21,0.22,0.32,0.64,0.33,1.27
			c0.01,0.45,0.03,0.83,0.06,1.14l0.02,0.18c0.02,0.2,0.05,0.36,0.08,0.5c0.03,0.14,0.06,0.28,0.1,0.43h-0.54h-0.54
			c-0.05-0.23-0.09-0.41-0.11-0.54c-0.02-0.13-0.04-0.23-0.05-0.32l-0.02-0.16c-0.03-0.31-0.05-0.66-0.06-1.05
			c-0.01-0.49-0.1-0.84-0.28-1.05c-0.18-0.21-0.47-0.31-0.87-0.31h-0.8h-0.01v3.43h-0.52h-0.52V50.42z M87.41,53.71h0.82
			c0.52,0,0.87-0.1,1.06-0.3c0.19-0.2,0.28-0.57,0.28-1.12v0.07c0-0.41-0.1-0.7-0.29-0.86s-0.54-0.23-1.06-0.23h-0.82V53.71z"/>
		<path class="st2" d="M91.82,50.42h0.51h0.52v7.57h-0.51h-0.52V50.42z"/>
		<path class="st2" d="M94.73,57.53c-0.31-0.37-0.46-1.03-0.46-2v-2.79c0-0.85,0.17-1.46,0.5-1.84c0.34-0.38,0.88-0.57,1.65-0.57
			c0.78,0,1.33,0.19,1.66,0.56s0.49,1,0.49,1.88v3.18c0,0.75-0.17,1.29-0.5,1.63c-0.34,0.33-0.89,0.5-1.65,0.5
			C95.6,58.08,95.04,57.9,94.73,57.53z M97.27,56.87c0.18-0.23,0.26-0.61,0.26-1.14v-3.18c0-0.52-0.08-0.88-0.24-1.08
			c-0.16-0.2-0.45-0.3-0.88-0.3c-0.39,0-0.68,0.12-0.85,0.37c-0.18,0.25-0.26,0.65-0.26,1.2v2.79c0,0.64,0.08,1.08,0.24,1.32
			s0.45,0.36,0.88,0.36C96.81,57.23,97.1,57.11,97.27,56.87z"/>
	</g>
</g>
</svg>
